<svg width="38" height="22" viewBox="0 0 38 22" fill="none" xmlns="http://www.w3.org/2000/svg">
<path d="M10.3603 0L0.559631 12.0102V13.9184L1.55073 14.9286L0.559631 15.9388V17.9592L1.55073 18.9694L0.559631 19.9796V22H37.5596V19.9796L36.5686 18.9694L37.5596 17.9592V15.9388L36.5686 14.9286L37.5596 13.9184V12.0102L36.5686 11L37.5596 9.98979V7.96939L36.5686 6.95916L37.5596 5.94896V3.92857L36.5686 2.91837L37.5596 2.02039V0H10.3603Z" fill="#AE0037"/>
<path d="M0.559631 19.9796H37.5596V17.9592H0.559631V19.9796ZM0.559631 15.9388H37.5596V13.9184H0.559631V15.9388ZM10.3603 2.02039L0.559631 9.98979V12.0102H37.5596V9.98979H10.3603L8.37806 7.96939H37.4495V5.94896H8.37806V3.92857H37.4495V1.90814H10.3603V2.02039Z" fill="white"/>
<path d="M10.3603 0H0.559631V9.98979H10.3603V0Z" fill="#192967"/>
<path d="M5.51503 2.02039L4.63409 4.82651L6.28588 5.38773L5.51503 2.02039Z" fill="white"/>
<path d="M5.51499 2.02039L6.39593 4.82651L4.74414 5.38773L5.51499 2.02039Z" fill="white"/>
<path d="M8.26798 4.04083H5.40491V5.83672L8.26798 4.04083Z" fill="white"/>
<path d="M8.26798 4.04083L5.9555 5.83672L4.85431 4.37755L8.26798 4.04083Z" fill="white"/>
<path d="M7.27691 7.40818L6.28588 4.48981L4.63409 5.05103L7.27691 7.40818Z" fill="white"/>
<path d="M7.27688 7.40817L4.85431 5.61225L5.84534 4.15305L7.27688 7.40817Z" fill="white"/>
<path d="M3.75311 7.40817L6.17568 5.61225L5.07449 4.15305L3.75311 7.40817Z" fill="white"/>
<path d="M3.75311 7.40818L4.74414 4.48981L6.39593 5.05103L3.75311 7.40818Z" fill="white"/>
<path d="M2.76202 4.04083L5.0745 5.83672L6.17569 4.37755L2.76202 4.04083Z" fill="white"/>
<path d="M2.76202 4.04083H5.62509V5.83672L2.76202 4.04083Z" fill="white"/>
</svg>
