<svg width="228" height="37" viewBox="0 0 228 37" fill="none" xmlns="http://www.w3.org/2000/svg">
<path d="M13.5812 31.346L11.4412 30.4314L0.493835 25.8584C1.89311 32.1775 7.49025 36.9168 14.1574 36.9168C15.8859 36.9168 17.5321 36.5842 19.0137 36.0022C16.9559 32.6764 13.5812 31.346 13.5812 31.346Z" fill="url(#paint0_linear)"/>
<path d="M15.639 23.6967C13.7458 19.1236 9.21876 17.2944 9.21876 17.2944L7.07866 16.3798L0.164612 13.4697V20.454L4.69169 22.3663C8.88952 24.1124 12.5112 25.609 13.8281 26.1911C17.6967 27.854 17.9437 30.2652 19.1783 33.1753C19.5899 34.0068 20.166 34.7551 20.8245 35.3371C22.7177 34.3394 24.3639 32.8427 25.5985 31.0967C23.9523 30.4315 21.2361 29.2675 19.3429 28.436C16.1328 27.0225 16.2151 25.1933 15.639 23.6967Z" fill="url(#paint1_linear)"/>
<path d="M14.9805 14.3011C11.7704 12.9708 11.8527 11.0584 11.2765 9.64495C9.38338 5.07192 4.85632 3.24269 4.85632 3.24269L2.71622 2.32808L0.164612 1.24719V8.23146L0.329243 8.31461C4.52708 10.0607 8.14872 11.5573 9.46568 12.1393C13.3343 13.8023 13.5812 16.2135 14.8159 19.1236C15.7213 21.2854 17.9437 22.4494 20.0838 23.3641L27.7386 26.5236C28.0679 25.3595 28.2325 24.0292 28.2325 22.782V19.8719C24.6931 18.3753 21.8122 17.2112 21.6476 17.1281C20.0837 16.4629 17.1206 15.2157 14.9805 14.3011Z" fill="url(#paint2_linear)"/>
<path d="M52.3494 14.218L47.5755 27.854C46.0116 32.3439 43.5423 34.0899 39.6737 33.9236V30.0158C41.6491 30.0158 42.5545 29.4337 43.1307 27.6877L37.6159 14.3012H42.2253L45.3531 22.9484L47.987 14.3012H52.3494V14.218Z" fill="#29297A"/>
<path d="M82.5574 14.218V28.2697H78.3596V26.9394C77.6188 28.0203 76.2195 28.6854 74.4087 28.6854C71.6101 28.6854 69.2231 26.6899 69.2231 22.8652V14.218H73.4209V22.2C73.4209 23.9461 74.491 24.7776 75.8079 24.7776C77.3718 24.7776 78.3596 23.8629 78.3596 21.8674V14.218H82.5574Z" fill="#29297A"/>
<path d="M84.5329 21.2022C84.5329 17.0449 87.6607 13.8022 91.9408 13.8022C94.6571 13.8022 97.044 15.2157 98.1964 17.3775L94.5748 19.5393C94.0809 18.5416 93.0931 17.9595 91.8585 17.9595C90.0476 17.9595 88.7307 19.2899 88.7307 21.2022C88.7307 23.1146 90.0476 24.4449 91.8585 24.4449C93.0931 24.4449 94.0809 23.8629 94.5748 22.8652L98.1964 24.9438C96.9617 27.1056 94.6571 28.6022 91.9408 28.6022C87.6607 28.6022 84.5329 25.4427 84.5329 21.2022Z" fill="#29297A"/>
<path d="M108.485 13.8854V18.6247C106.757 18.3752 104.287 19.0404 104.287 21.8674V28.1865H100.09V14.1348H104.287V16.6292C104.864 14.8 106.674 13.8854 108.485 13.8854Z" fill="#29297A"/>
<path d="M124.207 14.218V28.2697H120.009V26.9394C119.268 28.0203 117.869 28.6854 116.058 28.6854C113.259 28.6854 110.872 26.6899 110.872 22.8652V14.218H115.07V22.2C115.07 23.9461 116.14 24.7776 117.457 24.7776C119.021 24.7776 120.009 23.8629 120.009 21.8674V14.218H124.207Z" fill="#29297A"/>
<path d="M131.038 14.218H126.84V28.2697H131.038V14.218Z" fill="#29297A"/>
<path d="M139.516 18.209V23.1977C139.516 24.4449 140.586 24.5281 142.397 24.4449V28.2696C136.965 28.8517 135.318 27.1887 135.318 23.1977V18.209H133.096V14.1348H135.318V11.4741L139.516 10.2269V14.1348H142.397V18.209H139.516Z" fill="#29297A"/>
<path d="M52.5141 21.1191C52.5141 16.9618 55.8065 13.7191 59.922 13.7191C64.0375 13.7191 67.3299 16.9618 67.3299 21.1191C67.3299 25.2764 64.0375 28.5191 59.922 28.5191C55.8065 28.5191 52.5141 25.2764 52.5141 21.1191ZM63.1321 21.1191C63.1321 19.1236 61.7328 17.7933 59.922 17.7933C58.1112 17.7933 56.7119 19.1236 56.7119 21.1191C56.7119 23.1146 58.1112 24.445 59.922 24.445C61.7328 24.445 63.1321 23.1146 63.1321 21.1191Z" fill="#29297A"/>
<path d="M167.666 14.5506V27.9371C167.666 32.6765 164.045 34.672 160.341 34.672C157.46 34.672 154.991 33.5911 153.756 31.263L157.295 29.1843C157.789 30.1821 158.612 30.9304 160.505 30.9304C162.481 30.9304 163.633 29.9326 163.633 27.9371V26.6068C162.728 27.7708 161.411 28.436 159.6 28.436C155.649 28.436 152.768 25.1933 152.768 21.2855C152.768 17.3776 155.649 14.1349 159.6 14.1349C161.411 14.1349 162.728 14.8001 163.633 15.9641V14.5506H167.666ZM163.551 21.2855C163.551 19.3731 162.152 18.0428 160.176 18.0428C158.201 18.0428 156.801 19.3731 156.801 21.2855C156.801 23.1978 158.201 24.5281 160.176 24.5281C162.152 24.5281 163.551 23.281 163.551 21.2855Z" fill="#29297A"/>
<path d="M178.614 14.3011V19.0405C176.885 18.791 174.416 19.4562 174.416 22.2831V28.6023H170.218V14.5506H174.416V17.045C174.992 15.1326 176.885 14.3011 178.614 14.3011Z" fill="#29297A"/>
<path d="M180.013 21.618C180.013 17.4607 183.305 14.218 187.421 14.218C191.536 14.218 194.829 17.4607 194.829 21.618C194.829 25.7753 191.536 29.018 187.421 29.018C183.305 29.018 180.013 25.7753 180.013 21.618ZM190.549 21.618C190.549 19.6225 189.149 18.2922 187.339 18.2922C185.528 18.2922 184.129 19.6225 184.129 21.618C184.129 23.6135 185.528 24.9439 187.339 24.9439C189.149 24.9439 190.549 23.6135 190.549 21.618Z" fill="#29297A"/>
<path d="M210.386 14.5507V28.6023H206.188V27.272C205.447 28.3529 204.048 29.0181 202.237 29.0181C199.438 29.0181 197.051 27.0226 197.051 23.1978V14.5507H201.249V22.5327C201.249 24.2788 202.319 25.1102 203.636 25.1102C205.2 25.1102 206.188 24.1956 206.188 22.2001V14.5507H210.386Z" fill="#29297A"/>
<path d="M228 21.618C228 25.7753 224.955 29.018 221.333 29.018C219.44 29.018 218.123 28.3529 217.217 27.272V34.2562H213.019V14.5506H217.217V15.881C218.123 14.8001 219.522 14.1349 221.333 14.1349C224.955 14.1349 228 17.3776 228 21.618ZM223.802 21.618C223.802 19.5394 222.403 18.209 220.51 18.209C218.617 18.209 217.217 19.5394 217.217 21.618C217.217 23.6967 218.617 25.027 220.51 25.027C222.403 25.027 223.802 23.6967 223.802 21.618Z" fill="#29297A"/>
<path d="M131.038 12.0562V8.73035L126.84 9.97754V12.0562H131.038Z" fill="#F40C86"/>
<defs>
<linearGradient id="paint0_linear" x1="0.291681" y1="28.3818" x2="31.7235" y2="43.1782" gradientUnits="userSpaceOnUse">
<stop stop-color="#0AB5EC"/>
<stop offset="0.1219" stop-color="#0AB2EA"/>
<stop offset="0.1986" stop-color="#0AAAE4"/>
<stop offset="0.2629" stop-color="#0A9BD9"/>
<stop offset="0.3202" stop-color="#0986CA"/>
<stop offset="0.373" stop-color="#096CB7"/>
<stop offset="0.4224" stop-color="#094B9F"/>
<stop offset="0.4683" stop-color="#082483"/>
<stop offset="0.4781" stop-color="#081B7C"/>
<stop offset="0.4797" stop-color="#0C1B7C"/>
<stop offset="0.4985" stop-color="#3C187E"/>
<stop offset="0.5188" stop-color="#681580"/>
<stop offset="0.5403" stop-color="#8E1282"/>
<stop offset="0.5631" stop-color="#AE1083"/>
<stop offset="0.5878" stop-color="#C70F84"/>
<stop offset="0.6149" stop-color="#DB0E85"/>
<stop offset="0.646" stop-color="#E90D86"/>
<stop offset="0.6841" stop-color="#F20C86"/>
<stop offset="0.7504" stop-color="#F40C86"/>
</linearGradient>
<linearGradient id="paint1_linear" x1="0.987057" y1="18.5922" x2="28.1925" y2="33.1834" gradientUnits="userSpaceOnUse">
<stop stop-color="#0AB5EC"/>
<stop offset="0.1219" stop-color="#0AB2EA"/>
<stop offset="0.1986" stop-color="#0AAAE4"/>
<stop offset="0.2629" stop-color="#0A9BD9"/>
<stop offset="0.3202" stop-color="#0986CA"/>
<stop offset="0.373" stop-color="#096CB7"/>
<stop offset="0.4224" stop-color="#094B9F"/>
<stop offset="0.4683" stop-color="#082483"/>
<stop offset="0.4781" stop-color="#081B7C"/>
<stop offset="0.4797" stop-color="#0C1B7C"/>
<stop offset="0.4985" stop-color="#3C187E"/>
<stop offset="0.5188" stop-color="#681580"/>
<stop offset="0.5403" stop-color="#8E1282"/>
<stop offset="0.5631" stop-color="#AE1083"/>
<stop offset="0.5878" stop-color="#C70F84"/>
<stop offset="0.6149" stop-color="#DB0E85"/>
<stop offset="0.646" stop-color="#E90D86"/>
<stop offset="0.6841" stop-color="#F20C86"/>
<stop offset="0.7504" stop-color="#F40C86"/>
</linearGradient>
<linearGradient id="paint2_linear" x1="1.23317" y1="5.96174" x2="24.5126" y2="21.0103" gradientUnits="userSpaceOnUse">
<stop stop-color="#0AB5EC"/>
<stop offset="0.1219" stop-color="#0AB2EA"/>
<stop offset="0.1986" stop-color="#0AAAE4"/>
<stop offset="0.2629" stop-color="#0A9BD9"/>
<stop offset="0.3202" stop-color="#0986CA"/>
<stop offset="0.373" stop-color="#096CB7"/>
<stop offset="0.4224" stop-color="#094B9F"/>
<stop offset="0.4683" stop-color="#082483"/>
<stop offset="0.4781" stop-color="#081B7C"/>
<stop offset="0.4797" stop-color="#0C1B7C"/>
<stop offset="0.4985" stop-color="#3C187E"/>
<stop offset="0.5188" stop-color="#681580"/>
<stop offset="0.5403" stop-color="#8E1282"/>
<stop offset="0.5631" stop-color="#AE1083"/>
<stop offset="0.5878" stop-color="#C70F84"/>
<stop offset="0.6149" stop-color="#DB0E85"/>
<stop offset="0.646" stop-color="#E90D86"/>
<stop offset="0.6841" stop-color="#F20C86"/>
<stop offset="0.7504" stop-color="#F40C86"/>
</linearGradient>
</defs>
</svg>
