<svg width="105" height="88" viewBox="0 0 105 88" fill="none" xmlns="http://www.w3.org/2000/svg">
<path d="M51.4166 31.346L49.2766 30.4314L38.3292 25.8584C39.7285 32.1775 45.3256 36.9168 51.9928 36.9168C53.7213 36.9168 55.3675 36.5842 56.8491 36.0022C54.7913 32.6764 51.4166 31.346 51.4166 31.346Z" fill="url(#paint0_linear)"/>
<path d="M53.4744 23.6967C51.5812 19.1236 47.0542 17.2944 47.0542 17.2944L44.914 16.3798L38 13.4697V20.454L42.5271 22.3663C46.7249 24.1124 50.3465 25.609 51.6635 26.1911C55.5321 27.854 55.779 30.2652 57.0137 33.1753C57.4253 34.0068 58.0014 34.7551 58.6599 35.3371C60.553 34.3394 62.1992 32.8427 63.4339 31.0967C61.7877 30.4315 59.0715 29.2675 57.1783 28.436C53.9682 27.0225 54.0505 25.1933 53.4744 23.6967Z" fill="url(#paint1_linear)"/>
<path d="M52.8159 14.3011C49.6058 12.9708 49.6881 11.0584 49.1119 9.64495C47.2188 5.07192 42.6917 3.24269 42.6917 3.24269L40.5516 2.32808L38 1.24719V8.23146L38.1646 8.31461C42.3625 10.0607 45.9841 11.5573 47.3011 12.1393C51.1697 13.8023 51.4166 16.2135 52.6513 19.1236C53.5567 21.2854 55.7791 22.4494 57.9191 23.3641L65.574 26.5236C65.9032 25.3595 66.0679 24.0292 66.0679 22.782V19.8719C62.5285 18.3753 59.6476 17.2112 59.483 17.1281C57.9191 16.4629 54.956 15.2157 52.8159 14.3011Z" fill="url(#paint2_linear)"/>
<path d="M14.7335 48.218L9.95955 61.854C8.39565 66.3439 5.92635 68.0899 2.05776 67.9236V64.0158C4.03321 64.0158 4.93864 63.4337 5.51481 61.6877L0 48.3012H4.60937L7.73715 56.9484L10.3711 48.3012H14.7335V48.218Z" fill="#29297A"/>
<path d="M44.9416 48.218V62.2697H40.7438V60.9394C40.003 62.0203 38.6037 62.6854 36.7929 62.6854C33.9943 62.6854 31.6073 60.6899 31.6073 56.8652V48.218H35.8052V56.2C35.8052 57.9461 36.8752 58.7776 38.1921 58.7776C39.756 58.7776 40.7438 57.8629 40.7438 55.8674V48.218H44.9416Z" fill="#29297A"/>
<path d="M46.917 55.2022C46.917 51.0449 50.0448 47.8022 54.3249 47.8022C57.0412 47.8022 59.4282 49.2157 60.5805 51.3775L56.9589 53.5393C56.465 52.5416 55.4772 51.9595 54.2426 51.9595C52.4318 51.9595 51.1148 53.2899 51.1148 55.2022C51.1148 57.1146 52.4318 58.4449 54.2426 58.4449C55.4772 58.4449 56.465 57.8629 56.9589 56.8652L60.5805 58.9438C59.3458 61.1056 57.0412 62.6022 54.3249 62.6022C50.0448 62.6022 46.917 59.4427 46.917 55.2022Z" fill="#29297A"/>
<path d="M70.8693 47.8854V52.6247C69.1408 52.3752 66.6715 53.0404 66.6715 55.8674V62.1865H62.4736V48.1348H66.6715V50.6292C67.2477 48.8 69.0585 47.8854 70.8693 47.8854Z" fill="#29297A"/>
<path d="M86.5906 48.218V62.2697H82.3928V60.9394C81.652 62.0203 80.2527 62.6854 78.4419 62.6854C75.6433 62.6854 73.2563 60.6899 73.2563 56.8652V48.218H77.4542V56.2C77.4542 57.9461 78.5242 58.7776 79.8412 58.7776C81.4051 58.7776 82.3928 57.8629 82.3928 55.8674V48.218H86.5906Z" fill="#29297A"/>
<path d="M93.4225 48.218H89.2246V62.2697H93.4225V48.218Z" fill="#29297A"/>
<path d="M101.9 52.209V57.1977C101.9 58.4449 102.97 58.5281 104.781 58.4449V62.2696C99.3488 62.8517 97.7026 61.1887 97.7026 57.1977V52.209H95.4802V48.1348H97.7026V45.4741L101.9 44.2269V48.1348H104.781V52.209H101.9Z" fill="#29297A"/>
<path d="M14.8982 55.1191C14.8982 50.9618 18.1906 47.7191 22.3061 47.7191C26.4217 47.7191 29.7141 50.9618 29.7141 55.1191C29.7141 59.2764 26.4217 62.5191 22.3061 62.5191C18.1906 62.5191 14.8982 59.2764 14.8982 55.1191ZM25.5163 55.1191C25.5163 53.1236 24.117 51.7933 22.3061 51.7933C20.4953 51.7933 19.0961 53.1236 19.0961 55.1191C19.0961 57.1146 20.4953 58.445 22.3061 58.445C24.117 58.445 25.5163 57.1146 25.5163 55.1191Z" fill="#29297A"/>
<path d="M93.4225 46.0562V42.7303L89.2246 43.9775V46.0562H93.4225Z" fill="#F40C86"/>
<path d="M28.8982 67.4157V80.8023C28.8982 85.5416 25.2765 87.5371 21.5726 87.5371C18.6917 87.5371 16.2224 86.4562 14.9877 84.1281L18.5271 82.0494C19.0209 83.0472 19.8441 83.7955 21.7372 83.7955C23.7126 83.7955 24.865 82.7978 24.865 80.8023V79.4719C23.9596 80.636 22.6426 81.3011 20.8318 81.3011C16.8809 81.3011 14 78.0584 14 74.1506C14 70.2427 16.8809 67 20.8318 67C22.6426 67 23.9596 67.6652 24.865 68.8292V67.4157H28.8982ZM24.7827 74.1506C24.7827 72.2382 23.3834 70.9079 21.4079 70.9079C19.4325 70.9079 18.0332 72.2382 18.0332 74.1506C18.0332 76.0629 19.4325 77.3933 21.4079 77.3933C23.3834 77.3933 24.7827 76.1461 24.7827 74.1506Z" fill="#29297A"/>
<path d="M39.8455 67.1663V71.9056C38.117 71.6561 35.6477 72.3213 35.6477 75.1483V81.4674H31.4498V67.4157H35.6477V69.9101C36.2239 67.9977 38.117 67.1663 39.8455 67.1663Z" fill="#29297A"/>
<path d="M41.2448 74.4831C41.2448 70.3258 44.5372 67.0831 48.6527 67.0831C52.7682 67.0831 56.0606 70.3258 56.0606 74.4831C56.0606 78.6404 52.7682 81.8831 48.6527 81.8831C44.5372 81.8831 41.2448 78.6404 41.2448 74.4831ZM51.7805 74.4831C51.7805 72.4876 50.3812 71.1573 48.5703 71.1573C46.7595 71.1573 45.3603 72.4876 45.3603 74.4831C45.3603 76.4786 46.7595 77.809 48.5703 77.809C50.3812 77.809 51.7805 76.4786 51.7805 74.4831Z" fill="#29297A"/>
<path d="M71.6173 67.4158V81.4675H67.4195V80.1371C66.6787 81.218 65.2795 81.8832 63.4686 81.8832C60.6701 81.8832 58.2831 79.8877 58.2831 76.063V67.4158H62.4809V75.3978C62.4809 77.1439 63.551 77.9753 64.8679 77.9753C66.4318 77.9753 67.4195 77.0607 67.4195 75.0652V67.4158H71.6173Z" fill="#29297A"/>
<path d="M89.2317 74.4831C89.2317 78.6405 86.1863 81.8831 82.5646 81.8831C80.6715 81.8831 79.3545 81.218 78.4491 80.1371V87.1214H74.2512V67.4157H78.4491V68.7461C79.3545 67.6652 80.7538 67 82.5646 67C86.1863 67 89.2317 70.2427 89.2317 74.4831ZM85.0339 74.4831C85.0339 72.4045 83.6346 71.0742 81.7415 71.0742C79.8484 71.0742 78.4491 72.4045 78.4491 74.4831C78.4491 76.5618 79.8484 77.8921 81.7415 77.8921C83.6346 77.8921 85.0339 76.5618 85.0339 74.4831Z" fill="#29297A"/>
<defs>
<linearGradient id="paint0_linear" x1="38.1271" y1="28.3818" x2="69.5589" y2="43.1782" gradientUnits="userSpaceOnUse">
<stop stop-color="#0AB5EC"/>
<stop offset="0.1219" stop-color="#0AB2EA"/>
<stop offset="0.1986" stop-color="#0AAAE4"/>
<stop offset="0.2629" stop-color="#0A9BD9"/>
<stop offset="0.3202" stop-color="#0986CA"/>
<stop offset="0.373" stop-color="#096CB7"/>
<stop offset="0.4224" stop-color="#094B9F"/>
<stop offset="0.4683" stop-color="#082483"/>
<stop offset="0.4781" stop-color="#081B7C"/>
<stop offset="0.4797" stop-color="#0C1B7C"/>
<stop offset="0.4985" stop-color="#3C187E"/>
<stop offset="0.5188" stop-color="#681580"/>
<stop offset="0.5403" stop-color="#8E1282"/>
<stop offset="0.5631" stop-color="#AE1083"/>
<stop offset="0.5878" stop-color="#C70F84"/>
<stop offset="0.6149" stop-color="#DB0E85"/>
<stop offset="0.646" stop-color="#E90D86"/>
<stop offset="0.6841" stop-color="#F20C86"/>
<stop offset="0.7504" stop-color="#F40C86"/>
</linearGradient>
<linearGradient id="paint1_linear" x1="38.8224" y1="18.5922" x2="66.0279" y2="33.1834" gradientUnits="userSpaceOnUse">
<stop stop-color="#0AB5EC"/>
<stop offset="0.1219" stop-color="#0AB2EA"/>
<stop offset="0.1986" stop-color="#0AAAE4"/>
<stop offset="0.2629" stop-color="#0A9BD9"/>
<stop offset="0.3202" stop-color="#0986CA"/>
<stop offset="0.373" stop-color="#096CB7"/>
<stop offset="0.4224" stop-color="#094B9F"/>
<stop offset="0.4683" stop-color="#082483"/>
<stop offset="0.4781" stop-color="#081B7C"/>
<stop offset="0.4797" stop-color="#0C1B7C"/>
<stop offset="0.4985" stop-color="#3C187E"/>
<stop offset="0.5188" stop-color="#681580"/>
<stop offset="0.5403" stop-color="#8E1282"/>
<stop offset="0.5631" stop-color="#AE1083"/>
<stop offset="0.5878" stop-color="#C70F84"/>
<stop offset="0.6149" stop-color="#DB0E85"/>
<stop offset="0.646" stop-color="#E90D86"/>
<stop offset="0.6841" stop-color="#F20C86"/>
<stop offset="0.7504" stop-color="#F40C86"/>
</linearGradient>
<linearGradient id="paint2_linear" x1="39.0686" y1="5.96174" x2="62.348" y2="21.0103" gradientUnits="userSpaceOnUse">
<stop stop-color="#0AB5EC"/>
<stop offset="0.1219" stop-color="#0AB2EA"/>
<stop offset="0.1986" stop-color="#0AAAE4"/>
<stop offset="0.2629" stop-color="#0A9BD9"/>
<stop offset="0.3202" stop-color="#0986CA"/>
<stop offset="0.373" stop-color="#096CB7"/>
<stop offset="0.4224" stop-color="#094B9F"/>
<stop offset="0.4683" stop-color="#082483"/>
<stop offset="0.4781" stop-color="#081B7C"/>
<stop offset="0.4797" stop-color="#0C1B7C"/>
<stop offset="0.4985" stop-color="#3C187E"/>
<stop offset="0.5188" stop-color="#681580"/>
<stop offset="0.5403" stop-color="#8E1282"/>
<stop offset="0.5631" stop-color="#AE1083"/>
<stop offset="0.5878" stop-color="#C70F84"/>
<stop offset="0.6149" stop-color="#DB0E85"/>
<stop offset="0.646" stop-color="#E90D86"/>
<stop offset="0.6841" stop-color="#F20C86"/>
<stop offset="0.7504" stop-color="#F40C86"/>
</linearGradient>
</defs>
</svg>
